# Blender v2.78 (sub 0) OBJ File: 'sword.blend'
# www.blender.org
mtllib sword2.mtl
o Cube
v 1.000000 -0.301424 -0.254792
v 1.000000 -0.301424 0.254792
v -1.000000 -0.301424 0.254791
v -1.000000 -0.301424 -0.254793
v 1.000000 0.301424 -0.254792
v 0.999999 0.301424 0.254792
v -1.000000 0.301424 0.254791
v -1.000000 0.301424 -0.254792
v 0.264337 -0.239032 -0.202053
v -0.264337 -0.239032 -0.202053
v 0.264337 -0.239032 0.202052
v -0.264337 -0.239032 0.202052
v 0.264337 0.239032 -0.202053
v -0.264337 0.239032 -0.202053
v 0.264337 0.239032 0.202053
v -0.264337 0.239032 0.202052
v -0.461338 0.173117 -0.011330
v 0.005230 4.983820 -0.011330
v -0.461338 0.173117 -0.011330
v 0.005230 4.983820 -0.011330
v 0.471797 0.173117 -0.011330
v 0.005230 4.983820 -0.011330
v 0.471797 0.173117 -0.011330
v 0.005230 4.983820 -0.011330
v -0.331245 1.519193 -0.011330
v -0.461338 4.044588 -0.011330
v -0.461338 4.044588 -0.011330
v -0.331245 1.519193 -0.011330
v 0.471797 4.044588 -0.011330
v 0.341705 1.519193 -0.011330
v 0.471797 4.044588 -0.011330
v 0.341705 1.519193 -0.011330
v 0.238513 0.173117 -0.117632
v 0.005230 0.173117 -0.117632
v -0.228054 0.173117 -0.117632
v 0.005230 4.983820 -0.011330
v 0.005230 4.983820 -0.011330
v 0.005230 4.983820 -0.011330
v -0.228054 0.173117 0.094972
v 0.005230 0.173117 0.073182
v 0.238513 0.173117 0.094972
v 0.005230 4.983820 -0.011330
v 0.005230 4.983820 -0.011330
v 0.005230 4.983820 -0.011330
v 0.173467 1.519193 0.094972
v 0.005230 1.519193 0.073182
v -0.163008 1.519193 0.094972
v 0.238513 4.044588 0.094972
v 0.005230 4.044588 0.073182
v -0.228054 4.044588 0.094972
v -0.163008 1.519193 -0.117632
v 0.005230 1.519193 -0.117632
v 0.173467 1.519193 -0.117632
v -0.228054 4.044588 -0.117632
v 0.005230 4.044588 -0.117632
v 0.238513 4.044588 -0.117632
v 1.300000 0.000000 0.000000
v 1.300000 0.000000 0.000000
v 1.300000 0.000000 0.000000
v 1.300000 0.000000 0.000000
v -1.300000 -0.000000 -0.000001
v -1.300000 -0.000000 -0.000001
v -1.300000 -0.000000 -0.000001
v -1.300000 -0.000000 -0.000001
v 0.000000 -1.753512 -0.000000
v 0.000000 -1.753512 -0.000000
v 0.000000 -1.753512 -0.000000
v 0.000000 -1.753512 -0.000000
v -0.190909 -0.463940 0.145926
v -0.190909 -1.416125 0.145926
v 0.190909 -1.416125 0.145926
v 0.190909 -0.463940 0.145926
v 0.190909 -1.416125 -0.145927
v 0.190909 -0.463940 -0.145927
v -0.190909 -1.416125 -0.145927
v -0.190909 -0.463940 -0.145927
vt 0.1950 0.2249
vt 0.1360 0.1909
vt 0.1941 0.2270
vt 0.1262 0.1944
vt 0.1915 0.2241
vt 0.1928 0.2261
vt 0.2935 0.2906
vt 0.3412 0.3147
vt 0.3322 0.3091
vt 0.1357 0.1891
vt 0.0736 0.1534
vt 0.0972 0.1656
vt 0.2948 0.2854
vt 0.2372 0.2524
vt 0.2343 0.2512
vt 0.2991 0.2878
vt 0.2354 0.2493
vt 0.2969 0.2853
vt 0.2355 0.2511
vt 0.2152 0.2382
vt 0.2145 0.2380
vt 0.2148 0.2378
vt 0.1845 0.8907
vt 0.1824 0.9812
vt 0.1826 0.8907
vt 0.2524 0.9151
vt 0.2619 0.9833
vt 0.2343 0.9145
vt 0.2028 0.8948
vt 0.1841 0.9812
vt 0.1908 0.6407
vt 0.1855 0.7295
vt 0.1740 0.6414
vt 0.1986 0.7289
vt 0.2628 0.6415
vt 0.2490 0.7362
vt 0.2447 0.6407
vt 0.2631 0.7368
vt 0.1825 0.7295
vt 0.1642 0.8947
vt 0.1695 0.7288
vt 0.6915 0.6460
vt 0.6751 0.8938
vt 0.6751 0.6460
vt 0.6587 0.6460
vt 0.1778 0.6407
vt 0.1946 0.6415
vt 0.6751 0.5147
vt 0.6979 0.5147
vt 0.6523 0.5147
vt 0.2263 0.7360
vt 0.2161 0.9146
vt 0.2122 0.7360
vt 0.6457 0.6458
vt 0.6291 0.8939
vt 0.6291 0.6458
vt 0.6126 0.6458
vt 0.2161 0.6408
vt 0.2343 0.6407
vt 0.6291 0.5147
vt 0.6520 0.5147
vt 0.6063 0.5147
vt 0.2343 0.9147
vt 0.2029 0.9822
vt 0.6522 0.8935
vt 0.6291 0.9866
vt 0.6275 0.9866
vt 0.6061 0.8935
vt 0.1809 0.9815
vt 0.6980 0.8935
vt 0.6751 0.9866
vt 0.6735 0.9866
vt 0.6522 0.8935
vt 0.3877 0.3426
vt 0.3277 0.3063
vt 0.1338 0.1834
vt 0.1033 0.1744
vt 0.1029 0.1708
vt 0.2151 0.2385
vt 0.2148 0.2382
vt 0.2142 0.2380
vt 0.2145 0.2384
vt 0.2142 0.2377
vt 0.2073 0.2334
vt 0.2070 0.2351
vt 0.2220 0.2428
vt 0.2224 0.2411
vt 0.2631 0.9831
vt 0.1857 0.9815
vt 0.2041 0.9824
vt 0.6307 0.9866
vt 0.6767 0.9866
vt 0.0000 0.0000
vt 0.0000 0.0000
vt 0.0000 0.0000
vt 0.0000 0.0000
vt 0.0000 0.0000
vt 0.0000 0.0000
vt 0.0000 0.0000
vt 0.0000 0.0000
vt 0.0000 0.0000
vt 0.0000 0.0000
vt 0.0000 0.0000
vt 0.0000 0.0000
vt 0.0000 0.0000
vt 0.0000 0.0000
vt 0.0000 0.0000
vt 0.0000 0.0000
vt 0.0000 0.0000
vt 0.0000 0.0000
vt 0.0000 0.0000
vt 0.0000 0.0000
vt 0.0000 0.0000
vt 0.0000 0.0000
vt 0.0000 0.0000
vt 0.0000 0.0000
vt 0.0000 0.0000
vt 0.0000 0.0000
vt 0.0000 0.0000
vt 0.0000 0.0000
vt 0.0000 0.0000
vt 0.0000 0.0000
vt 0.0000 0.0000
vt 0.0000 0.0000
vt 0.0000 0.0000
vt 0.0000 0.0000
vt 0.0000 0.0000
vt 0.0000 0.0000
vt 0.0000 0.0000
vt 0.0000 0.0000
vn -0.1976 -0.4591 0.8661
vn -0.3309 -0.6733 -0.6612
vn -0.1976 -0.4590 -0.8661
vn -0.3308 0.6733 -0.6612
vn 0.0565 0.7043 0.7076
vn 0.0565 0.7043 -0.7076
vn 0.3308 0.6733 -0.6612
vn 0.1200 0.1194 0.9855
vn 0.2220 0.0000 0.9750
vn -0.3308 -0.6733 0.6612
vn -0.1466 0.0000 0.9892
vn -0.1200 -0.1194 0.9855
vn 0.3308 -0.6733 -0.6612
vn -0.0565 0.7043 -0.7076
vn 0.1976 -0.4590 -0.8661
vn 0.3308 0.6732 0.6613
vn 0.1976 -0.4591 0.8661
vn 0.3308 -0.6733 0.6612
vn -0.0565 0.7043 0.7076
vn 0.6876 -0.2698 0.6741
vn 0.0000 -0.0530 0.9986
vn 0.1314 -0.0744 0.9885
vn -0.1941 0.0353 0.9803
vn 0.0000 0.0000 1.0000
vn -0.8249 0.1501 0.5450
vn 0.2282 0.0774 -0.9705
vn 0.0163 0.0081 0.9998
vn 0.8249 0.1501 0.5450
vn -0.1865 0.0737 0.9797
vn -0.0152 0.0075 0.9998
vn -0.1375 -0.6466 0.7503
vn -0.2775 0.0036 0.9607
vn -0.1356 0.0131 0.9907
vn -0.2094 0.0030 0.9778
vn 0.1697 -0.6548 -0.7365
vn 0.9785 0.0128 0.2057
vn 0.3240 0.0313 0.9455
vn 0.2720 0.0030 -0.9623
vn -0.9785 0.0128 0.2057
vn -0.2282 0.0774 -0.9705
vn -0.2720 0.0030 -0.9623
vn 0.0000 0.0563 -0.9984
vn 0.0000 0.0000 -1.0000
vn -0.1697 -0.6547 -0.7365
vn -0.2989 -0.3871 0.8722
vn 0.0000 -0.7071 -0.7071
vn 0.2775 0.0036 0.9607
vn 0.1865 0.0737 0.9797
vn 0.2094 0.0030 0.9778
vn 0.0000 0.0461 0.9989
vn 0.1375 -0.6467 0.7503
vn 0.1335 -0.1729 0.9758
vn 0.0000 -0.7301 0.6833
vn 0.1941 0.0353 0.9803
vn 0.0122 0.0061 0.9999
vn -0.0028 0.0027 1.0000
vn 0.0028 0.0027 1.0000
vn -0.0129 0.0064 0.9999
vn 0.0000 0.0036 1.0000
vn 0.1466 0.0000 0.9892
vn 0.1200 -0.1194 0.9855
vn -0.3308 0.6733 0.6612
vn -0.1200 0.1194 0.9855
vn -0.2220 0.0000 0.9750
vn 0.6876 -0.2698 -0.6741
vn 0.0000 -0.0702 0.9975
vn -0.6877 -0.2698 -0.6740
vn -0.1314 -0.0744 0.9885
vn -0.6876 -0.2698 0.6741
vn -0.6802 -0.2100 0.7023
vn -0.6802 -0.2100 -0.7023
vn 0.6802 -0.2100 -0.7023
vn 0.6802 -0.2100 0.7023
usemtl Material
s 1
f 12/1/1 4/2/2 10/3/3
f 8/4/4 16/5/5 14/6/6
f 5/7/7 60/8/8 59/9/9
f 16/5/5 3/10/10 12/1/1
f 3/10/10 63/11/11 61/12/12
f 14/6/6 4/2/2 8/4/4
f 1/13/13 13/14/14 5/7/7
f 9/15/15 14/6/6 13/14/14
f 6/16/16 11/17/17 2/18/18
f 15/19/19 12/1/1 11/17/17
f 13/14/14 6/16/16 5/7/7
f 14/6/6 15/19/19 13/14/14
f 1/13/13 11/17/17 9/15/15
f 71/20/20 68/21/21 67/22/22
f 26/23/23 20/24/24 27/25/25
f 56/26/26 24/27/27 29/28/28
f 50/29/29 18/30/30 26/23/23
f 39/31/31 25/32/32 17/33/33
f 50/29/29 25/32/32 47/34/34
f 33/35/35 30/36/36 23/37/37
f 56/26/26 30/36/36 53/38/38
f 25/32/32 27/25/25 28/39/39
f 28/39/39 54/40/40 51/41/41
f 51/42/41 55/43/42 52/44/43
f 55/43/42 53/45/38 52/44/43
f 28/39/39 35/46/44 19/47/45
f 51/42/41 34/48/46 35/49/44
f 34/48/46 53/45/38 33/50/35
f 32/51/47 48/52/48 45/53/49
f 45/54/49 49/55/50 46/56/24
f 49/55/50 47/57/34 46/56/24
f 32/51/47 41/58/51 21/59/52
f 45/54/49 40/60/53 41/61/51
f 40/60/53 47/57/34 39/62/31
f 31/63/54 42/64/55 48/52/48
f 48/65/48 43/66/56 49/55/50
f 49/55/50 44/67/57 50/68/29
f 27/25/25 36/69/58 54/40/40
f 54/70/40 37/71/59 55/43/42
f 55/43/42 38/72/59 56/73/26
f 6/16/16 58/74/60 60/8/8
f 1/13/13 59/9/9 57/75/61
f 2/18/18 57/75/61 58/74/60
f 7/76/62 64/77/63 63/11/11
f 8/4/4 62/78/64 64/77/63
f 4/2/2 61/12/12 62/78/64
f 73/79/65 67/22/22 65/80/66
f 75/81/67 65/80/66 66/82/68
f 70/83/69 66/82/68 68/21/21
f 10/3/3 69/84/70 12/1/1
f 76/85/71 70/83/69 69/84/70
f 9/15/15 76/85/71 10/3/3
f 74/86/72 75/81/67 76/85/71
f 11/17/17 74/86/72 9/15/15
f 72/87/73 73/79/65 74/86/72
f 12/1/1 72/87/73 11/17/17
f 69/84/70 71/20/20 72/87/73
f 12/1/1 3/10/10 4/2/2
f 8/4/4 7/76/62 16/5/5
f 5/7/7 6/16/16 60/8/8
f 16/5/5 7/76/62 3/10/10
f 3/10/10 7/76/62 63/11/11
f 14/6/6 10/3/3 4/2/2
f 1/13/13 9/15/15 13/14/14
f 9/15/15 10/3/3 14/6/6
f 6/16/16 15/19/19 11/17/17
f 15/19/19 16/5/5 12/1/1
f 13/14/14 15/19/19 6/16/16
f 14/6/6 16/5/5 15/19/19
f 1/13/13 2/18/18 11/17/17
f 71/20/20 70/83/69 68/21/21
f 26/23/23 18/30/30 20/24/24
f 56/26/26 38/88/59 24/27/27
f 50/29/29 44/89/57 18/30/30
f 39/31/31 47/34/34 25/32/32
f 50/29/29 26/23/23 25/32/32
f 33/35/35 53/38/38 30/36/36
f 56/26/26 29/28/28 30/36/36
f 25/32/32 26/23/23 27/25/25
f 28/39/39 27/25/25 54/40/40
f 51/42/41 54/70/40 55/43/42
f 55/43/42 56/73/26 53/45/38
f 28/39/39 51/41/41 35/46/44
f 51/42/41 52/44/43 34/48/46
f 34/48/46 52/44/43 53/45/38
f 32/51/47 31/63/54 48/52/48
f 45/54/49 48/65/48 49/55/50
f 49/55/50 50/68/29 47/57/34
f 32/51/47 45/53/49 41/58/51
f 45/54/49 46/56/24 40/60/53
f 40/60/53 46/56/24 47/57/34
f 31/63/54 22/90/24 42/64/55
f 48/65/48 42/91/55 43/66/56
f 49/55/50 43/66/56 44/67/57
f 27/25/25 20/24/24 36/69/58
f 54/70/40 36/92/58 37/71/59
f 55/43/42 37/71/59 38/72/59
f 6/16/16 2/18/18 58/74/60
f 1/13/13 5/7/7 59/9/9
f 2/18/18 1/13/13 57/75/61
f 7/76/62 8/4/4 64/77/63
f 8/4/4 4/2/2 62/78/64
f 4/2/2 3/10/10 61/12/12
f 73/79/65 71/20/20 67/22/22
f 75/81/67 73/79/65 65/80/66
f 70/83/69 75/81/67 66/82/68
f 10/3/3 76/85/71 69/84/70
f 76/85/71 75/81/67 70/83/69
f 9/15/15 74/86/72 76/85/71
f 74/86/72 73/79/65 75/81/67
f 11/17/17 72/87/73 74/86/72
f 72/87/73 71/20/20 73/79/65
f 12/1/1 69/84/70 72/87/73
f 69/84/70 70/83/69 71/20/20
usemtl Material_NONE
f 29/93/28 22/94/24 31/95/54
f 33/96/35 21/97/52 41/98/51
f 36/99/58 18/100/30 44/101/57
f 23/102/37 32/103/47 21/97/52
f 30/104/36 31/95/54 32/103/47
f 17/105/33 28/106/39 19/107/45
f 24/108/27 42/109/55 22/94/24
f 38/110/59 43/111/56 42/109/55
f 37/112/59 44/101/57 43/111/56
f 19/107/45 39/113/31 17/105/33
f 35/114/44 40/115/53 39/113/31
f 33/96/35 40/115/53 34/116/46
f 57/117/61 60/118/8 58/119/60
f 61/120/12 64/121/63 62/122/64
f 65/123/66 68/124/21 66/125/68
f 29/93/28 24/108/27 22/94/24
f 33/96/35 23/102/37 21/97/52
f 36/99/58 20/126/24 18/100/30
f 23/102/37 30/104/36 32/103/47
f 30/104/36 29/93/28 31/95/54
f 17/105/33 25/127/32 28/106/39
f 24/108/27 38/110/59 42/109/55
f 38/110/59 37/112/59 43/111/56
f 37/112/59 36/99/58 44/101/57
f 19/107/45 35/114/44 39/113/31
f 35/114/44 34/116/46 40/115/53
f 33/96/35 41/98/51 40/115/53
f 57/117/61 59/128/9 60/118/8
f 61/120/12 63/129/11 64/121/63
f 65/123/66 67/130/22 68/124/21
