# Blender v2.78 (sub 0) OBJ File: ''
# www.blender.org
mtllib sword.mtl
o Cube
v 1.000000 -0.301424 -0.254792
v 1.000000 -0.301424 0.254792
v -1.000000 -0.301424 0.254791
v -1.000000 -0.301424 -0.254793
v 1.000000 0.301424 -0.254792
v 0.999999 0.301424 0.254792
v -1.000000 0.301424 0.254791
v -1.000000 0.301424 -0.254792
v 0.264337 -0.239032 -0.202053
v -0.264337 -0.239032 -0.202053
v 0.264337 -0.239032 0.202052
v -0.264337 -0.239032 0.202052
v 0.264337 0.239032 -0.202053
v -0.264337 0.239032 -0.202053
v 0.264337 0.239032 0.202053
v -0.264337 0.239032 0.202052
v -0.461338 0.173117 -0.011330
v 0.005230 4.983820 -0.011330
v -0.461338 0.173117 -0.011330
v 0.005230 4.983820 -0.011330
v 0.471797 0.173117 -0.011330
v 0.005230 4.983820 -0.011330
v 0.471797 0.173117 -0.011330
v 0.005230 4.983820 -0.011330
v -0.331245 1.519193 -0.011330
v -0.461338 4.044588 -0.011330
v -0.461338 4.044588 -0.011330
v -0.331245 1.519193 -0.011330
v 0.471797 4.044588 -0.011330
v 0.341705 1.519193 -0.011330
v 0.471797 4.044588 -0.011330
v 0.341705 1.519193 -0.011330
v 0.238513 0.173117 -0.117632
v 0.005230 0.173117 -0.117632
v -0.228054 0.173117 -0.117632
v 0.005230 4.983820 -0.011330
v 0.005230 4.983820 -0.011330
v 0.005230 4.983820 -0.011330
v -0.228054 0.173117 0.094972
v 0.005230 0.173117 0.073182
v 0.238513 0.173117 0.094972
v 0.005230 4.983820 -0.011330
v 0.005230 4.983820 -0.011330
v 0.005230 4.983820 -0.011330
v 0.173467 1.519193 0.094972
v 0.005230 1.519193 0.073182
v -0.163008 1.519193 0.094972
v 0.238513 4.044588 0.094972
v 0.005230 4.044588 0.073182
v -0.228054 4.044588 0.094972
v -0.163008 1.519193 -0.117632
v 0.005230 1.519193 -0.117632
v 0.173467 1.519193 -0.117632
v -0.228054 4.044588 -0.117632
v 0.005230 4.044588 -0.117632
v 0.238513 4.044588 -0.117632
v 1.300000 0.000000 0.000000
v 1.300000 0.000000 0.000000
v 1.300000 0.000000 0.000000
v 1.300000 0.000000 0.000000
v -1.300000 -0.000000 -0.000001
v -1.300000 -0.000000 -0.000001
v -1.300000 -0.000000 -0.000001
v -1.300000 -0.000000 -0.000001
v 0.000000 -1.753512 -0.000000
v 0.000000 -1.753512 -0.000000
v 0.000000 -1.753512 -0.000000
v 0.000000 -1.753512 -0.000000
v -0.190909 -0.463940 0.145926
v -0.190909 -1.416125 0.145926
v 0.190909 -1.416125 0.145926
v 0.190909 -0.463940 0.145926
v 0.190909 -1.416125 -0.145927
v 0.190909 -0.463940 -0.145927
v -0.190909 -1.416125 -0.145927
v -0.190909 -0.463940 -0.145927
vt 0.1950 0.2249
vt 0.1360 0.1909
vt 0.1941 0.2270
vt 0.1262 0.1944
vt 0.1915 0.2241
vt 0.1928 0.2261
vt 0.2935 0.2906
vt 0.3412 0.3147
vt 0.3322 0.3091
vt 0.1357 0.1891
vt 0.0736 0.1534
vt 0.0972 0.1656
vt 0.2948 0.2854
vt 0.2372 0.2524
vt 0.2343 0.2512
vt 0.2991 0.2878
vt 0.2354 0.2493
vt 0.2969 0.2853
vt 0.2355 0.2511
vt 0.2152 0.2382
vt 0.2145 0.2380
vt 0.2148 0.2378
vt 0.1845 0.8907
vt 0.1824 0.9812
vt 0.1826 0.8907
vt 0.2524 0.9151
vt 0.2619 0.9833
vt 0.2343 0.9145
vt 0.2028 0.8948
vt 0.1841 0.9812
vt 0.1908 0.6407
vt 0.1855 0.7295
vt 0.1740 0.6414
vt 0.1986 0.7289
vt 0.2628 0.6415
vt 0.2490 0.7362
vt 0.2447 0.6407
vt 0.2631 0.7368
vt 0.1825 0.7295
vt 0.1642 0.8947
vt 0.1695 0.7288
vt 0.6915 0.6460
vt 0.6751 0.8938
vt 0.6751 0.6460
vt 0.6587 0.6460
vt 0.1778 0.6407
vt 0.1946 0.6415
vt 0.6751 0.5147
vt 0.6979 0.5147
vt 0.6523 0.5147
vt 0.2263 0.7360
vt 0.2161 0.9146
vt 0.2122 0.7360
vt 0.6457 0.6458
vt 0.6291 0.8939
vt 0.6291 0.6458
vt 0.6126 0.6458
vt 0.2161 0.6408
vt 0.2343 0.6407
vt 0.6291 0.5147
vt 0.6520 0.5147
vt 0.6063 0.5147
vt 0.2343 0.9147
vt 0.2029 0.9822
vt 0.6522 0.8935
vt 0.6291 0.9866
vt 0.6275 0.9866
vt 0.6061 0.8935
vt 0.1809 0.9815
vt 0.6980 0.8935
vt 0.6751 0.9866
vt 0.6735 0.9866
vt 0.6522 0.8935
vt 0.3877 0.3426
vt 0.3277 0.3063
vt 0.1338 0.1834
vt 0.1033 0.1744
vt 0.1029 0.1708
vt 0.2151 0.2385
vt 0.2148 0.2382
vt 0.2142 0.2380
vt 0.2145 0.2384
vt 0.2142 0.2377
vt 0.2073 0.2334
vt 0.2070 0.2351
vt 0.2220 0.2428
vt 0.2224 0.2411
vt 0.2631 0.9831
vt 0.1857 0.9815
vt 0.2041 0.9824
vt 0.6307 0.9866
vt 0.6767 0.9866
vt 0.0000 0.0000
vt 0.0000 0.0000
vt 0.0000 0.0000
vt 0.0000 0.0000
vt 0.0000 0.0000
vt 0.0000 0.0000
vt 0.0000 0.0000
vt 0.0000 0.0000
vt 0.0000 0.0000
vt 0.0000 0.0000
vt 0.0000 0.0000
vt 0.0000 0.0000
vt 0.0000 0.0000
vt 0.0000 0.0000
vt 0.0000 0.0000
vt 0.0000 0.0000
vt 0.0000 0.0000
vt 0.0000 0.0000
vt 0.0000 0.0000
vt 0.0000 0.0000
vt 0.0000 0.0000
vt 0.0000 0.0000
vt 0.0000 0.0000
vt 0.0000 0.0000
vt 0.0000 0.0000
vt 0.0000 0.0000
vt 0.0000 0.0000
vt 0.0000 0.0000
vt 0.0000 0.0000
vt 0.0000 0.0000
vt 0.0000 0.0000
vt 0.0000 0.0000
vt 0.0000 0.0000
vt 0.0000 0.0000
vt 0.0000 0.0000
vt 0.0000 0.0000
vt 0.0000 0.0000
vt 0.0000 0.0000
vn 0.0845 -0.9964 0.0000
vn 0.0845 0.9964 0.0000
vn 0.0000 0.0000 1.0000
vn 0.0715 0.0000 0.9974
vn 0.0715 0.0000 -0.9974
vn -0.0715 0.0000 -0.9974
vn 0.0000 0.0000 -1.0000
vn -0.0715 -0.0000 0.9974
vn -0.0845 0.9964 -0.0000
vn 0.0000 1.0000 -0.0000
vn -0.0845 -0.9964 -0.0000
vn 0.4061 0.2017 -0.8913
vn -0.4061 0.2017 0.8913
vn -0.4143 0.0400 0.9092
vn -0.5341 -0.0138 0.8453
vn 0.4143 0.0400 -0.9092
vn 0.5341 -0.0138 -0.8453
vn -0.5341 -0.0138 -0.8453
vn -0.4143 0.0400 -0.9092
vn 0.5341 -0.0138 0.8453
vn -0.1284 -0.0000 0.9917
vn 0.1284 0.0000 0.9917
vn 0.4143 0.0400 0.9092
vn -0.0930 -0.0045 0.9957
vn 0.0930 -0.0045 0.9957
vn 0.4061 0.2017 0.8913
vn -0.0926 0.0892 0.9917
vn 0.0926 0.0892 0.9917
vn -0.4061 0.2017 -0.8913
vn 0.0000 0.1125 -0.9937
vn -0.9506 -0.3104 -0.0000
vn -1.0000 0.0000 -0.0000
vn 0.0000 -0.2421 -0.9702
vn 0.9506 -0.3104 0.0000
vn 1.0000 0.0000 0.0000
vn 0.0000 -0.2421 0.9702
vn 0.7088 0.7054 0.0000
vn -0.6473 0.0000 0.7622
vn 0.0000 -0.3970 0.9178
vn -0.5340 0.0258 0.8451
vn -0.4146 -0.0214 0.9098
vn 0.5340 0.0258 -0.8451
vn 0.4146 -0.0214 -0.9098
vn -0.4146 -0.0214 -0.9098
vn -0.5340 0.0258 -0.8451
vn 0.4146 -0.0214 0.9098
vn -0.0930 0.0024 0.9957
vn 0.0930 0.0024 0.9957
vn 0.5340 0.0258 0.8451
vn 0.6473 0.0000 0.7622
vn 0.6473 0.0000 -0.7622
vn 0.7088 -0.7054 0.0000
vn -0.7088 0.7054 -0.0000
vn -0.6473 0.0000 -0.7622
vn -0.7088 -0.7054 -0.0000
vn 0.8703 -0.4925 0.0000
vn 0.0000 -0.3970 -0.9178
vn -0.8703 -0.4925 -0.0000
vn 0.0000 -1.0000 0.0000
usemtl Material
s off
f 12/1/1 4/2/1 10/3/1
f 8/4/2 16/5/2 14/6/2
f 5/7/3 60/8/3 59/9/3
f 16/5/4 3/10/4 12/1/4
f 3/10/3 63/11/3 61/12/3
f 14/6/5 4/2/5 8/4/5
f 1/13/6 13/14/6 5/7/6
f 9/15/7 14/6/7 13/14/7
f 6/16/8 11/17/8 2/18/8
f 15/19/3 12/1/3 11/17/3
f 13/14/9 6/16/9 5/7/9
f 14/6/10 15/19/10 13/14/10
f 1/13/11 11/17/11 9/15/11
f 71/20/3 68/21/3 67/22/3
f 26/23/3 20/24/3 27/25/3
f 56/26/12 24/27/12 29/28/12
f 50/29/13 18/30/13 26/23/13
f 39/31/14 25/32/14 17/33/14
f 50/29/15 25/32/15 47/34/15
f 33/35/16 30/36/16 23/37/16
f 56/26/17 30/36/17 53/38/17
f 25/32/3 27/25/3 28/39/3
f 28/39/18 54/40/18 51/41/18
f 51/42/7 55/43/7 52/44/7
f 55/43/7 53/45/7 52/44/7
f 28/39/19 35/46/19 19/47/19
f 51/42/7 34/48/7 35/49/7
f 34/48/7 53/45/7 33/50/7
f 32/51/20 48/52/20 45/53/20
f 45/54/21 49/55/21 46/56/21
f 49/55/22 47/57/22 46/56/22
f 32/51/23 41/58/23 21/59/23
f 45/54/24 40/60/24 41/61/24
f 40/60/25 47/57/25 39/62/25
f 31/63/26 42/64/26 48/52/26
f 48/65/27 43/66/27 49/55/27
f 49/55/28 44/67/28 50/68/28
f 27/25/29 36/69/29 54/40/29
f 54/70/30 37/71/30 55/43/30
f 55/43/30 38/72/30 56/73/30
f 6/16/3 58/74/3 60/8/3
f 1/13/3 59/9/3 57/75/3
f 2/18/3 57/75/3 58/74/3
f 7/76/3 64/77/3 63/11/3
f 8/4/3 62/78/3 64/77/3
f 4/2/3 61/12/3 62/78/3
f 73/79/3 67/22/3 65/80/3
f 75/81/3 65/80/3 66/82/3
f 70/83/3 66/82/3 68/21/3
f 10/3/31 69/84/31 12/1/31
f 76/85/32 70/83/32 69/84/32
f 9/15/33 76/85/33 10/3/33
f 74/86/7 75/81/7 76/85/7
f 11/17/34 74/86/34 9/15/34
f 72/87/35 73/79/35 74/86/35
f 12/1/36 72/87/36 11/17/36
f 69/84/3 71/20/3 72/87/3
f 12/1/1 3/10/1 4/2/1
f 8/4/2 7/76/2 16/5/2
f 5/7/37 6/16/37 60/8/37
f 16/5/4 7/76/4 3/10/4
f 3/10/38 7/76/38 63/11/38
f 14/6/5 10/3/5 4/2/5
f 1/13/6 9/15/6 13/14/6
f 9/15/7 10/3/7 14/6/7
f 6/16/8 15/19/8 11/17/8
f 15/19/3 16/5/3 12/1/3
f 13/14/9 15/19/9 6/16/9
f 14/6/10 16/5/10 15/19/10
f 1/13/11 2/18/11 11/17/11
f 71/20/39 70/83/39 68/21/39
f 26/23/3 18/30/3 20/24/3
f 56/26/3 38/88/3 24/27/3
f 50/29/3 44/89/3 18/30/3
f 39/31/40 47/34/40 25/32/40
f 50/29/41 26/23/41 25/32/41
f 33/35/42 53/38/42 30/36/42
f 56/26/43 29/28/43 30/36/43
f 25/32/3 26/23/3 27/25/3
f 28/39/44 27/25/44 54/40/44
f 51/42/7 54/70/7 55/43/7
f 55/43/7 56/73/7 53/45/7
f 28/39/45 51/41/45 35/46/45
f 51/42/7 52/44/7 34/48/7
f 34/48/7 52/44/7 53/45/7
f 32/51/46 31/63/46 48/52/46
f 45/54/47 48/65/47 49/55/47
f 49/55/48 50/68/48 47/57/48
f 32/51/49 45/53/49 41/58/49
f 45/54/21 46/56/21 40/60/21
f 40/60/22 46/56/22 47/57/22
f 31/63/3 22/90/3 42/64/3
f 48/65/3 42/91/3 43/66/3
f 49/55/3 43/66/3 44/67/3
f 27/25/3 20/24/3 36/69/3
f 54/70/3 36/92/3 37/71/3
f 55/43/3 37/71/3 38/72/3
f 6/16/50 2/18/50 58/74/50
f 1/13/51 5/7/51 59/9/51
f 2/18/52 1/13/52 57/75/52
f 7/76/53 8/4/53 64/77/53
f 8/4/54 4/2/54 62/78/54
f 4/2/55 3/10/55 61/12/55
f 73/79/56 71/20/56 67/22/56
f 75/81/57 73/79/57 65/80/57
f 70/83/58 75/81/58 66/82/58
f 10/3/31 76/85/31 69/84/31
f 76/85/32 75/81/32 70/83/32
f 9/15/33 74/86/33 76/85/33
f 74/86/7 73/79/7 75/81/7
f 11/17/34 72/87/34 74/86/34
f 72/87/35 71/20/35 73/79/35
f 12/1/36 69/84/36 72/87/36
f 69/84/3 70/83/3 71/20/3
usemtl Material_NONE
f 29/93/3 22/94/3 31/95/3
f 33/96/59 21/97/59 41/98/59
f 36/99/3 18/100/3 44/101/3
f 23/102/3 32/103/3 21/97/3
f 30/104/3 31/95/3 32/103/3
f 17/105/3 28/106/3 19/107/3
f 24/108/3 42/109/3 22/94/3
f 38/110/3 43/111/3 42/109/3
f 37/112/3 44/101/3 43/111/3
f 19/107/3 39/113/3 17/105/3
f 35/114/59 40/115/59 39/113/59
f 33/96/59 40/115/59 34/116/59
f 57/117/3 60/118/3 58/119/3
f 61/120/3 64/121/3 62/122/3
f 65/123/3 68/124/3 66/125/3
f 29/93/3 24/108/3 22/94/3
f 33/96/3 23/102/3 21/97/3
f 36/99/3 20/126/3 18/100/3
f 23/102/3 30/104/3 32/103/3
f 30/104/3 29/93/3 31/95/3
f 17/105/3 25/127/3 28/106/3
f 24/108/3 38/110/3 42/109/3
f 38/110/3 37/112/3 43/111/3
f 37/112/3 36/99/3 44/101/3
f 19/107/59 35/114/59 39/113/59
f 35/114/59 34/116/59 40/115/59
f 33/96/59 41/98/59 40/115/59
f 57/117/3 59/128/3 60/118/3
f 61/120/3 63/129/3 64/121/3
f 65/123/3 67/130/3 68/124/3
